<?xml version="1.0" encoding="UTF-8" standalone="no"?>
<!-- Created with Inkscape (http://www.inkscape.org/) -->

<svg
   version="1.1"
   id="svg2"
   width="684.44"
   height="684.44"
   viewBox="0 0 684.44 684.44"
   sodipodi:docname="logo.eps"
   xmlns:inkscape="http://www.inkscape.org/namespaces/inkscape"
   xmlns:sodipodi="http://sodipodi.sourceforge.net/DTD/sodipodi-0.dtd"
   xmlns="http://www.w3.org/2000/svg"
   xmlns:svg="http://www.w3.org/2000/svg">
  <defs
     id="defs6" />
  <sodipodi:namedview
     id="namedview4"
     pagecolor="#ffffff"
     bordercolor="#000000"
     borderopacity="0.25"
     inkscape:showpageshadow="2"
     inkscape:pageopacity="0.0"
     inkscape:pagecheckerboard="0"
     inkscape:deskcolor="#d1d1d1" />
  <g
     id="g8"
     inkscape:groupmode="layer"
     inkscape:label="ink_ext_XXXXXX"
     transform="matrix(1.3333333,0,0,-1.3333333,0,684.44)">
    <g
       id="g10"
       transform="scale(0.1)">
      <path
         d="M 5133.33,2566.66 C 5133.33,1149.13 3984.2,0 2566.67,0 1149.14,0 0,1149.13 0,2566.66 c 0,1417.53 1149.14,2566.67 2566.67,2566.67 1417.53,0 2566.66,-1149.14 2566.66,-2566.67"
         style="fill:#3b5d25;fill-opacity:1;fill-rule:nonzero;stroke:none"
         id="path12" />
      <path
         d="m 5009.14,2566.66 c 0,-1348.94 -1093.53,-2442.469 -2442.47,-2442.469 -1348.94,0 -2442.475,1093.529 -2442.475,2442.469 0,1348.94 1093.535,2442.48 2442.475,2442.48 1348.94,0 2442.47,-1093.54 2442.47,-2442.48"
         style="fill:#ffffff;fill-opacity:1;fill-rule:nonzero;stroke:none"
         id="path14" />
      <path
         d="m 536.078,1733.81 c 103.344,86.44 220.477,184.41 447.75,184.41 227.282,0 344.412,-97.97 447.762,-184.41 94.3,-78.87 175.74,-146.98 344.69,-146.98 168.96,0 250.4,68.11 344.71,146.98 103.35,86.44 220.49,184.41 447.77,184.41 227.27,0 344.41,-97.97 447.75,-184.41 94.3,-78.87 175.75,-146.98 344.71,-146.98 168.98,0 250.44,68.11 344.76,146.98 103.35,86.44 220.5,184.41 447.81,184.41 227.31,0 344.45,-97.97 447.81,-184.41 40.91,-34.21 80.26,-66.95 125.28,-92.71 121.86,284.04 189.45,596.9 189.45,925.56 0,1297.68 -1051.98,2349.66 -2349.66,2349.66 -1297.68,0 -2349.662,-1051.98 -2349.662,-2349.66 0,-329.44 67.914,-642.98 190.32,-927.56 46.508,26.06 86.817,59.63 128.75,94.71"
         style="fill:#61b832;fill-opacity:1;fill-rule:nonzero;stroke:none"
         id="path16" />
      <path
         d="m 4498.54,1610.59 c -94.31,78.87 -175.76,146.98 -344.75,146.98 -168.98,0 -250.44,-68.11 -344.75,-146.98 -103.36,-86.44 -220.51,-184.41 -447.82,-184.41 -227.27,0 -344.42,97.97 -447.76,184.41 -94.3,78.87 -175.75,146.98 -344.7,146.98 -168.96,0 -250.41,-68.11 -344.71,-146.98 -103.35,-86.44 -220.49,-184.41 -447.77,-184.41 -227.28,0 -344.41,97.97 -447.76,184.41 -94.3,78.87 -175.75,146.98 -344.692,146.98 -168.949,0 -250.383,-68.11 -344.683,-146.98 -49.188,-41.15 -99.68,-83.32 -163.184,-117.22 C 865.836,735.449 1655.69,217 2566.67,217 c 911.71,0 1702.13,519.281 2091.67,1278.2 -61.94,33.61 -111.51,75 -159.8,115.39"
         style="fill:#395bb2;fill-opacity:1;fill-rule:nonzero;stroke:none"
         id="path18" />
      <path
         d="m 2163.03,4610.18 c 0,0 -519.26,-305.07 -545.23,-811.35 -25.96,-506.28 451.11,-691.27 590.66,-765.91 139.55,-74.65 204.46,-197.97 220.69,-344.01 0,0 -102.77,68.15 -392.69,-5.41 -289.92,-73.56 -426.23,-43.27 -545.23,30.29 0,0 166.6,-69.24 350.5,-21.64 183.91,47.6 367.82,99.53 480.32,82.22 0,0 -151.45,231.5 -465.17,229.34 -313.72,-2.16 -534.41,-240.16 -960.634,-86.54 0,0 276.934,-501.96 681.534,-549.56 404.59,-47.6 586.33,168.76 675.04,225.02 88.7,56.25 170.92,75.72 203.37,-30.29 32.46,-106.02 -30.29,-456.52 -21.63,-735.62 8.65,-279.11 73.56,-532.25 -144.96,-579.85 -218.52,-47.6 -534.41,-196.88 -443.54,-508.44 0,0 -69.23,315.88 402.43,367.81 0,0 -125.49,-153.619 -80.05,-315.888 45.43,-162.262 -32.46,-309.391 -86.55,-352.661 0,0 162.27,93.028 160.11,287.758 -2.16,194.723 103.85,367.811 242.32,456.511 0,0 -10.82,-97.36 -95.2,-335.351 -84.38,-238 -21.63,-486.808 95.2,-556.039 0,0 -142.8,203.371 0,512.77 0,0 6.49,-69.238 127.65,-173.09 121.16,-103.848 71.4,-318.051 71.4,-318.051 0,0 106.02,149.293 25.96,305.071 -80.05,155.781 -220.68,177.41 -75.72,543.06 0,0 86.54,-67.07 99.52,-263.959 12.99,-196.891 188.24,-307.23 188.24,-307.23 0,0 -125.49,134.14 -112.51,242.32 12.98,108.18 -32.45,220.689 -32.45,220.689 0,0 147.12,-60.58 266.12,-218.521 119,-157.949 25.96,-294.25 -86.55,-417.578 0,0 222.85,160.109 205.55,339.691 -17.31,179.578 -320.22,385.118 -320.22,385.118 0,0 398.1,-10.82 417.58,-238.001 0,0 23.8,170.931 -103.86,225.011 -127.65,54.09 -413.24,119 -424.06,294.25 -10.82,175.25 -2.16,335.36 -23.8,419.74 -21.63,84.38 -84.38,794.04 -84.38,794.04 0,0 62.75,38.94 216.36,-106.02 153.62,-144.96 765.91,-434.88 1276.52,387.29 0,0 -235.83,-97.37 -452.19,-34.62 -216.36,62.74 -670.71,281.26 -980.11,-101.69 0,0 164.43,12.98 417.57,-67.07 253.15,-80.06 406.76,-4.33 406.76,-4.33 0,0 -140.63,-116.83 -380.79,-54.09 -240.16,62.74 -421.9,84.38 -506.28,49.76 0,0 49.76,569.03 378.63,620.95 0,0 -207.71,-82.21 -222.85,-311.55 0,0 337.52,-49.77 473.82,225.01 136.31,274.78 60.58,597.15 60.58,597.15 0,0 -64.9,-153.61 -261.79,-257.47 -196.89,-103.85 -523.58,-158.7 -428.39,-478.15 0,0 -45.44,-168.76 -134.15,-279.1 0,0 -2.16,441.37 -181.74,655.57 -179.57,214.19 -331.03,274.77 -309.39,588.49 0,0 -32.45,-190.39 220.69,-400.26 253.14,-209.87 315.88,-553.88 315.88,-553.88 0,0 157.2,381.72 21.64,696.67 -143.88,334.28 -463.01,263.96 -390.53,801.62"
         style="fill:#ffffff;fill-opacity:1;fill-rule:nonzero;stroke:none"
         id="path20" />
    </g>
  </g>
</svg>
